<?xml version="1.0"?><svg width="191.237" height="492.407" xmlns="http://www.w3.org/2000/svg">
 <g>
  <title>Layer 1</title>
  <g id="g1517">
   <g id="g1519">
    <path d="m95.744354,81.670998c22.107262,0 40.032288,-18.283997 40.032288,-40.835999c0,-22.550999 -17.925026,-40.834999 -40.032288,-40.834999c-22.110207,0 -40.032295,18.284 -40.032295,40.834999c0,22.552002 17.922089,40.835999 40.032295,40.835999z" id="path1521" fill="#63d3d3"/>
    <path d="m95.744354,40.834999" id="path1523" fill="#63d3d3"/>
   </g>
   <path d="m52.903313,90.682999c-28.349257,0 -51.148665,23.584 -51.148665,53l0,125.375015c0,24.375 34.972617,24.375 34.972617,0l0,-114.642014l8.279194,0l0,313.906998c0,32.590027 46.570362,31.631042 46.570362,0l0,-182.218964l8.021362,0l0,182.218964c0,31.631042 46.82621,32.590027 46.82621,0l0,-313.906998l8.085083,0l0,114.642014c0,24.562988 34.790268,24.561981 34.727524,0l0,-124.625015c0,-27.125 -20.650421,-53.694 -51.777054,-53.694l-84.556633,-0.056z" id="path1525" fill="#63d3d3"/>
  </g>
 </g>

</svg>